<svg xmlns="http://www.w3.org/2000/svg" xmlns:xlink="http://www.w3.org/1999/xlink" width="48" height="48" viewBox="0 0 48 48">
  <defs>
    <clipPath id="clip-path">
      <rect id="矩形_1252" data-name="矩形 1252" width="48" height="48" transform="translate(8533 607)" fill="#fff"/>
    </clipPath>
    <filter id="联合_49" x="-0.5" y="-2.5" width="48.532" height="53.3" filterUnits="userSpaceOnUse">
      <feOffset dy="2" input="SourceAlpha"/>
      <feGaussianBlur stdDeviation="1.5" result="blur"/>
      <feFlood flood-color="#0c110b" flood-opacity="0.251"/>
      <feComposite operator="in" in2="blur"/>
      <feComposite in="SourceGraphic"/>
    </filter>
  </defs>
  <g id="停车场" transform="translate(-8533 -607)" clip-path="url(#clip-path)">
    <g transform="matrix(1, 0, 0, 1, 8533, 607)" filter="url(#联合_49)">
      <path id="联合_49-2" data-name="联合 49" d="M16.7,39.979A20.012,20.012,0,0,1,0,20.11,19.94,19.94,0,0,1,19.766,0,19.94,19.94,0,0,1,39.532,20.11,20.012,20.012,0,0,1,22.837,39.979L19.766,44.3Z" transform="translate(4 0)" fill="#fc2fd3"/>
    </g>
    <path id="路径_2728" data-name="路径 2728" d="M36.486,5.992A6.039,6.039,0,0,0,30.4,0c-.153,0-.3.011-.454.023H24.57V.034H21.819V22h3.088V11.965h5.018a2.756,2.756,0,0,0,.475.019A6.04,6.04,0,0,0,36.486,5.992ZM29.924,8.877H24.907V3.087h5.018a3.041,3.041,0,0,1,2.811,2.871A3.087,3.087,0,0,1,29.924,8.877Zm7.337,7.715a1.724,1.724,0,0,0-.366-.418l-1.107-2.965a1.537,1.537,0,0,0-1.2-.858H28.77a1.536,1.536,0,0,0-1.2.858l-1.108,2.965a1.738,1.738,0,0,0-.366.418c-.1.194-.205.369-.205,1.683,0,1.282.257,1.738.565,1.9l.243.137V21.5c0,.386.092.5.458.5h.822c.366,0,.613,0,.613-.384V20.456h6.175v1.158c0,.386.247.384.613.384H36.2c.366,0,.458-.115.458-.5v-1.19l.243-.137c.308-.158.565-.613.565-1.9,0-1.314-.107-1.488-.206-1.683Zm-9.325-.766c.046-.168.354-1.482.49-1.938a1.037,1.037,0,0,1,.845-.6h4.814a1.032,1.032,0,0,1,.844.6c.137.456.444,1.77.491,1.938.055.2-.126.182-.126.182H28.062s-.182.017-.126-.182Zm.119,3.218a.884.884,0,1,1,.884-.884A.886.886,0,0,1,28.055,19.044Zm7.274,0a.884.884,0,1,1,.884-.884A.887.887,0,0,1,35.329,19.044Zm0,0" transform="translate(8527.181 614.749)" fill="#f5f5f5"/>
  </g>
</svg>
