<svg xmlns="http://www.w3.org/2000/svg" width="20" height="21.732" viewBox="0 0 20 21.732">
  <defs>
    <style>
      .cls-1 {
        isolation: isolate;
      }

      .cls-2 {
        fill: #f5f5f5;
      }
    </style>
  </defs>
  <g id="man" class="cls-1" transform="translate(-170.313 -140.724)">
    <path id="路径_602" data-name="路径 602" class="cls-2" d="M290.309,140.724a6.518,6.518,0,1,0,6.774,6.514A6.655,6.655,0,0,0,290.309,140.724Z" transform="translate(-109.995)"/>
    <path id="路径_603" data-name="路径 603" class="cls-2" d="M185.467,592.435a8.366,8.366,0,0,1-10.31,0,10.368,10.368,0,0,0-4.844,8.031,40.351,40.351,0,0,0,5.035.26h9.927a40.415,40.415,0,0,0,5.038-.26,10.351,10.351,0,0,0-4.846-8.031Z" transform="translate(0 -438.27)"/>
  </g>
</svg>
