<svg xmlns="http://www.w3.org/2000/svg" width="25" height="26.372" viewBox="0 0 25 26.372">
  <defs>
    <style>
      .cls-1 {
        fill: #f5f5f5;
      }
    </style>
  </defs>
  <path id="专家咨询icon" class="cls-1" d="M108.183,64h.418a9.959,9.959,0,0,1,1.879.209c.415.1.82.233,1.232.349q3.9,1.145,7.792,2.293a2.443,2.443,0,0,1,1.089.6,1.088,1.088,0,0,1,.3.644v.164a1.087,1.087,0,0,1-.3.641,2.4,2.4,0,0,1-1.05.579c-1.4.415-2.8.823-4.2,1.238v2.246a7.212,7.212,0,0,1-.349,2.466,6.945,6.945,0,0,1-12.707,1.112,6.9,6.9,0,0,1-.829-3.236V70.713l-1.521-.447v2.547a.7.7,0,0,1-.841.7.686.686,0,0,1-.552-.65v-3c-.418-.125-.835-.245-1.253-.37a2.941,2.941,0,0,1-.868-.4,1.294,1.294,0,0,1-.444-.528,1.007,1.007,0,0,1-.018-.746,1.239,1.239,0,0,1,.453-.564,3.293,3.293,0,0,1,1.038-.453l8.41-2.472A8.784,8.784,0,0,1,108.183,64ZM99.055,74.441a.708.708,0,0,1,.641.158c.125.122.245.245.37.367a.692.692,0,0,1,.206.531.73.73,0,0,1-.262.522,2.37,2.37,0,0,1-.468.415.706.706,0,0,1-.743-.078c-.122-.1-.23-.227-.346-.337a.822.822,0,0,1-.221-.313.7.7,0,0,1,.137-.71c.107-.113.221-.221.328-.331A.74.74,0,0,1,99.055,74.441Zm2.929,5.123a.707.707,0,0,1,.59.113,10.14,10.14,0,0,0,2.481,1.357,9.452,9.452,0,0,0,3.388.605A9.633,9.633,0,0,0,113.6,80.1c.212-.134.418-.28.623-.429a.7.7,0,0,1,.614-.1,1.39,1.39,0,0,1,.4.253,12.93,12.93,0,0,1,3.826,4.891,14.249,14.249,0,0,1,1.226,4.816.854.854,0,0,1-.024.358.7.7,0,0,1-.623.48H97.239a.7.7,0,0,1-.388-.083.689.689,0,0,1-.361-.656,14.165,14.165,0,0,1,1.232-4.915,12.96,12.96,0,0,1,3.838-4.9,1.116,1.116,0,0,1,.423-.253m4.855,5.836a.691.691,0,0,0-.11,1.306,1.435,1.435,0,0,0,.564.06h2.49a.7.7,0,0,0,.585-.331.686.686,0,0,0-.021-.757.694.694,0,0,0-.564-.3h-2.636A1.185,1.185,0,0,0,106.838,85.4Z" transform="translate(-95.891 -64)"/>
</svg>
