<svg xmlns="http://www.w3.org/2000/svg" width="19.001" height="14" viewBox="0 0 19.001 14">
  <defs>
    <style>
      .cls-1 {
        fill: #f5f5f5;
      }
    </style>
  </defs>
  <path id="事故查询icon" class="cls-1" d="M-19.82-3654.285a1.686,1.686,0,0,1-1.7-1.669,1.686,1.686,0,0,1,1.7-1.669,1.687,1.687,0,0,1,1.7,1.669A1.686,1.686,0,0,1-19.82-3654.285Zm-9.361,0a1.686,1.686,0,0,1-1.7-1.669,1.686,1.686,0,0,1,1.7-1.669,1.686,1.686,0,0,1,1.7,1.669A1.686,1.686,0,0,1-29.181-3654.285Zm7.056-1.668h-4.75a2.269,2.269,0,0,0-.7-1.635,2.391,2.391,0,0,0-1.679-.678,2.347,2.347,0,0,0-2.375,2.313h-1.187A1.146,1.146,0,0,1-34-3657.11v-10.02a1.146,1.146,0,0,1,1.188-1.156h10.688a1.146,1.146,0,0,1,1.187,1.156v1.157h1.544a1.213,1.213,0,0,1,.713.231l3.206,2.389a1.138,1.138,0,0,1,.475.925v5.318a1.146,1.146,0,0,1-1.188,1.156h-1.188a2.269,2.269,0,0,0-.7-1.635,2.39,2.39,0,0,0-1.678-.678,2.347,2.347,0,0,0-2.375,2.313Zm-3.212-4.167h0l1.829,1.8a.5.5,0,0,0,.354.143.507.507,0,0,0,.355-.143.493.493,0,0,0,0-.7l-1.833-1.8a3.922,3.922,0,0,0,.523-.882,3.9,3.9,0,0,0,.316-1.542,3.9,3.9,0,0,0-.316-1.542,3.954,3.954,0,0,0-.859-1.26,4.018,4.018,0,0,0-1.276-.85,4.06,4.06,0,0,0-1.564-.311,4.025,4.025,0,0,0-1.564.313,3.989,3.989,0,0,0-1.276.85,3.95,3.95,0,0,0-.86,1.26,3.9,3.9,0,0,0-.315,1.542,3.9,3.9,0,0,0,.315,1.542,3.955,3.955,0,0,0,.86,1.259,4.015,4.015,0,0,0,1.276.85,4.037,4.037,0,0,0,1.564.312,4.05,4.05,0,0,0,1.564-.312,4.07,4.07,0,0,0,.907-.526Zm4.4-5.083v4.625h5.146v-1.387a1.2,1.2,0,0,0-.475-.925l-2.771-2.081a1.129,1.129,0,0,0-.713-.232Zm-6.87,5.11A3.177,3.177,0,0,1-31-3663.247a3.177,3.177,0,0,1,3.193-3.153,3.177,3.177,0,0,1,3.193,3.153A3.177,3.177,0,0,1-27.808-3660.093Z" transform="translate(34 3668.285)"/>
</svg>
