<svg xmlns="http://www.w3.org/2000/svg" width="23" height="16.271" viewBox="0 0 23 16.271">
  <defs>
    <style>
      .cls-1 {
        fill: #fafafa;
      }
    </style>
  </defs>
  <path id="事故icon" class="cls-1" d="M23.526,159.982h-.5a.788.788,0,0,0-.644.215c0-.072,0-.072-.072-.143-.286-.858-.572-1.645-.858-2.5a1.374,1.374,0,0,0-1.287-.93H13.3a1.309,1.309,0,0,0-1.287.93c-.215.572-.358,1.144-.572,1.788-.072.286-.215.644-.286.93a.07.07,0,0,0-.072-.072.393.393,0,0,0-.358-.215H9.94a.453.453,0,0,0-.429.358.556.556,0,0,0,.143.572c.143.072.215.143.358.143h.572v5.577a2.726,2.726,0,0,0,1.073-.072c.572-.143.787-.5.787-1.144,0-.143-.072-.286-.072-.5h8.724c0,.143-.072.286-.072.5a1.033,1.033,0,0,0,.429,1,1.982,1.982,0,0,0,1.43.215v-5.577h.644a.615.615,0,0,0,.572-.572.817.817,0,0,0-.572-.5Zm-10.94.215c.143-.572.358-1.216.5-1.788a1.074,1.074,0,0,1,1.073-.787H19.45a1.074,1.074,0,0,1,1.073.787c.215.715.429,1.359.572,2.074v.072H12.514c0-.143.072-.215.072-.358Zm0,3.146a.826.826,0,0,1-.858-.858.869.869,0,0,1,.858-.858.858.858,0,1,1,0,1.716Zm8.223,0a.826.826,0,0,1-.858-.858.869.869,0,0,1,.858-.858.858.858,0,1,1,0,1.716ZM9.368,158.909a4.915,4.915,0,0,1,.358-1.716v-.072c0-.143-.072-.215-.072-.358a.626.626,0,0,1,.644-.572c.072,0,.143,0,.143-.072a3.786,3.786,0,0,1,1.931-1.144c.143,0,.215-.072.358-.072-.215-.143-.358-.072-.572-.072s-.358,0-.5.215c0-.072,0-.072-.072-.143-.215-.644-.429-1.359-.644-2a1.06,1.06,0,0,0-1-.858H4.291a1.147,1.147,0,0,0-1,.787c-.143.286-.215.644-.358.93L2.5,155.048c-.143-.143-.215-.286-.429-.286h-.5a.546.546,0,0,0-.358.143.424.424,0,0,0-.072.5.392.392,0,0,0,.429.286h.5v4.576a3.481,3.481,0,0,0,.858-.072.839.839,0,0,0,.644-.715,1.394,1.394,0,0,0-.072-.572Zm-5.649-3.718c.143-.572.286-1.073.429-1.645a.841.841,0,0,1,.858-.644H9.3a.841.841,0,0,1,.858.644c.143.572.358,1.144.5,1.716v.072H3.648l.072-.143Zm-.644,1.645a.717.717,0,0,1,.715-.715.66.66,0,0,1,.715.644.717.717,0,0,1-.715.715A.592.592,0,0,1,3.076,156.835Zm11.512-2.217c.215,0,.286-.143.429-.286.358-.858.787-1.716,1.216-2.574.143-.215.215-.5.358-.715a.467.467,0,0,0-.358-.644h-.644a1.347,1.347,0,0,0-.572.143.154.154,0,0,0-.143.143,17.428,17.428,0,0,0-.429,1.859c-.072.5-.215,1-.286,1.5a.645.645,0,0,0,.072.358.393.393,0,0,0,.358.215Zm.93.715a.337.337,0,0,0-.072.429.714.714,0,0,0,.358.286.546.546,0,0,0,.358-.143c.644-.644,1.216-1.287,1.859-1.931l.072-.071a.438.438,0,0,0-.286-.715.525.525,0,0,0-.429.143c-.572.644-1.216,1.287-1.859,2Zm-3.361-2.288c.143.429.215.93.358,1.359a.453.453,0,0,0,.429.358.458.458,0,0,0,.429-.572c-.215-.858-.5-1.788-.715-2.646a.558.558,0,0,0-.286-.286.44.44,0,0,0-.5.072.587.587,0,0,0-.072.5,11.031,11.031,0,0,0,.358,1.216Z" transform="translate(-1.098 -150.4)"/>
</svg>
