<svg xmlns="http://www.w3.org/2000/svg" width="14.063" height="15" viewBox="0 0 14.063 15">
  <defs>
    <style>
      .cls-1 {
        fill: #f5f5f5;
      }
    </style>
  </defs>
  <path id="事故记录icon" class="cls-1" d="M43.395.7A.728.728,0,0,0,41.94.7V2.109a.728.728,0,0,0,1.455,0ZM39.758.7A.728.728,0,0,0,38.3.7V2.109a.728.728,0,0,0,1.455,0ZM36.121.7a.728.728,0,0,0-1.455,0V2.109a.728.728,0,0,0,1.455,0Zm9.213.7H44.122v.7a1.456,1.456,0,0,1-2.91,0v-.7h-.727v.7a1.456,1.456,0,0,1-2.91,0v-.7h-.727v.7a1.456,1.456,0,0,1-2.91,0v-.7H32.727a.716.716,0,0,0-.727.7V14.3a.716.716,0,0,0,.727.7H45.334a.715.715,0,0,0,.727-.7V2.109A.716.716,0,0,0,45.334,1.406ZM36,12.753a.607.607,0,0,1-1.213,0V11.164a.607.607,0,0,1,1.213,0Zm2.426,0a.607.607,0,0,1-1.213,0V9.574a.607.607,0,0,1,1.213,0Zm2.426,0a.606.606,0,0,1-1.213,0V7.985a.606.606,0,0,1,1.213,0Zm2.427,0a.607.607,0,0,1-1.213,0V6.4a.607.607,0,0,1,1.213,0Z" transform="translate(-31.999)"/>
</svg>
