<svg xmlns="http://www.w3.org/2000/svg" width="18.329" height="19.403" viewBox="0 0 18.329 19.403">
  <defs>
    <style>
      .cls-1 {
        fill: #28b3e6;
      }
    </style>
  </defs>
  <path id="修改icon" class="cls-1" d="M33.26,15.811H49.1a1.244,1.244,0,1,1,0,2.488H33.26a1.244,1.244,0,1,1,0-2.488ZM41.054.592c.02.022.03.042.052.065.427.474,1.021,1.121,1.749,1.917.626.67,1.238,1.336,1.717,1.844l-6.816,7.065-.437.431a2.4,2.4,0,0,1-1.7.7H33.675a.664.664,0,0,1-.655-.679V9.953a2.607,2.607,0,0,1,.77-1.853l.365-.365,6.9-7.145Zm1.04-1.056a2.052,2.052,0,0,1,2.976,0L45.7.182a2.229,2.229,0,0,1,0,3.08l-.073.087Q43.844,1.456,42.094-.465Z" transform="translate(-32.015 1.104)"/>
</svg>
