<svg xmlns="http://www.w3.org/2000/svg" width="15.975" height="15.318" viewBox="0 0 15.975 15.318">
  <defs>
 
  </defs>
  <path id="标题二icon" class="cls-1" d="M93.986,104.394l1.278-.541-.28,2.774Zm3.58-1.79,1.419,1.24-3.355,2.749Zm-7.622,1.835,1.126-1.534,2.827,3.324Zm-4.5,7.941c.12-.539.325-.966.94-.94a.447.447,0,0,0,.227-.3c.16-.612.336-1.223.435-1.849a2.12,2.12,0,0,1,1.673-1.794c.32-.1.651-.176.977-.262a7.808,7.808,0,0,1,2.54-.242c.591.078,1.187.128,1.771.244a1.285,1.285,0,0,1,.952.831q.447,1.092.935,2.167a.466.466,0,0,0,.3.271.877.877,0,0,1,1.048.67.931.931,0,0,1,.033.405l-.66.267a7.332,7.332,0,0,1,.149.784c.107,1.21.211,2.421.286,3.633a1.121,1.121,0,0,1-.15.626,5.04,5.04,0,0,1-1.89.217c-.463-.267-.235-.812-.41-1.22l-5.729.545a4.612,4.612,0,0,1-.21,1.278,5.109,5.109,0,0,1-1.942.185,1.247,1.247,0,0,1-.27-.673c-.074-.507-.1-1.023-.133-1.534-.066-.954-.13-1.9-.2-2.864l-.646-.121a.831.831,0,0,1-.026-.326Zm8.732,1.555a6.09,6.09,0,0,0,.809,0,7.767,7.767,0,0,0,.921-.219c.432-.152.307-.548.269-.89-.033-.292-.218-.5-.454-.392a12.389,12.389,0,0,0-1.722.917.32.32,0,0,0,.177.585Zm.977-3.132c-.276-.707-.547-1.333-.764-1.982a1,1,0,0,0-1.054-.779c-1.233.057-2.465.128-3.694.233a4.825,4.825,0,0,0-1.2.32.7.7,0,0,0-.408.372c-.229.823-.413,1.662-.631,2.572a17.013,17.013,0,0,0,7.746-.733Zm-7.922,3.761a8.626,8.626,0,0,0,.931.025h0a2.646,2.646,0,0,0,.628-.119.6.6,0,0,0,.352-.337.494.494,0,0,0-.256-.384,12.867,12.867,0,0,0-1.534-.5.414.414,0,0,0-.587.375C86.693,114.206,86.829,114.512,87.228,114.564Zm9.652-2.582a12.22,12.22,0,0,0,3.052-.054c-.164-.745-.3-1.432-.474-2.106a.543.543,0,0,0-.307-.3,3.393,3.393,0,0,0-.895-.261q-1.276-.116-2.557-.179-.147-.375-.29-.752c.3-.045.6-.077.895-.121a5.4,5.4,0,0,1,1.909.2c.245.071.492.134.734.215a1.681,1.681,0,0,1,1.257,1.47c.075.511.206,1.013.327,1.514a.362.362,0,0,0,.171.245c.462-.022.616.329.706.767a.74.74,0,0,1-.02.265l-.486.1c-.049.785-.1,1.565-.148,2.345-.027.42-.045.842-.1,1.257a1.071,1.071,0,0,1-.2.552,3.537,3.537,0,0,1-1.459-.151,4.091,4.091,0,0,1-.158-1.047l-1.592-.165c-.064-1-.143-2-.224-3a7.914,7.914,0,0,0-.137-.784Zm1.75,2.068a.467.467,0,0,0,.265.275,1.843,1.843,0,0,0,.472.1h0a5.951,5.951,0,0,0,.7-.02c.3-.042.4-.293.347-.767a.313.313,0,0,0-.44-.307,9.119,9.119,0,0,0-1.151.41.408.408,0,0,0-.191.311Z" transform="translate(-85.435 -102.605)"/>
</svg>
