<svg xmlns="http://www.w3.org/2000/svg" width="20" height="18.182" viewBox="0 0 20 18.182">
  <defs>
    <style>
      .cls-1 {
        fill: #fff;
      }
    </style>
  </defs>
  <path id="启动icon" class="cls-1" d="M9.825,115.344a.454.454,0,1,0,0,.909h4.544a.454.454,0,1,0,0-.909Zm5.908-2.272a.454.454,0,0,0-.454-.454H9.825a.454.454,0,1,0,0,.909h5.453a.454.454,0,0,0,.454-.454ZM6.644,118.98V106.255a1.818,1.818,0,0,1,1.818-1.818H23a1.818,1.818,0,0,1,1.818,1.818v10.172l.909,1.544V105.346a1.818,1.818,0,0,0-1.818-1.818H7.553a1.818,1.818,0,0,0-1.818,1.818v14.542a1.818,1.818,0,0,0,1.818,1.818h3.284l.534-.909H8.462a1.817,1.817,0,0,1-1.818-1.817ZM22.1,110.345a.455.455,0,0,0-.455-.454H9.825a.454.454,0,1,0,0,.909H21.64a.455.455,0,0,0,.455-.454Zm-2.731.466-6.373,10.9H25.735l-6.371-10.9Zm.459,9.077h-.909v-.909h.909Zm-.909-1.818v-3.635h.909v3.635Zm2.727-10.906H9.825a.454.454,0,0,0,0,.909H21.64a.455.455,0,1,0,0-.909Z" transform="translate(-5.735 -103.529)"/>
</svg>
