<svg xmlns="http://www.w3.org/2000/svg" width="23.164" height="23.164" viewBox="0 0 23.164 23.164">
  <defs>
    <style>
      .cls-1 {
        fill: #b7b0b0;
      }
    </style>
  </defs>
  <path id="地表覆盖icon" class="cls-1" d="M17.194,21.714a.891.891,0,1,1-.864-1.558,9.8,9.8,0,1,0-9.492,0,.891.891,0,0,1-.864,1.559,11.583,11.583,0,1,1,11.22,0Zm-5.612-5.677a4.455,4.455,0,1,1,4.455-4.455,4.455,4.455,0,0,1-4.455,4.455Zm0-1.782a2.673,2.673,0,1,0-2.673-2.673,2.673,2.673,0,0,0,2.673,2.673Zm0,2.673,4.455,6.237H7.127Zm-1.114,4.454H12.7l-1.114-1.614-1.114,1.614Z"/>
</svg>
