<svg xmlns="http://www.w3.org/2000/svg" xmlns:xlink="http://www.w3.org/1999/xlink" width="45.582" height="45.582" viewBox="0 0 45.582 45.582">
  <defs>
    <style>
      .cls-1 {
        fill: url(#linear-gradient);
      }
    </style>
    <linearGradient id="linear-gradient" x1="0.5" y1="1" x2="0.5" gradientUnits="objectBoundingBox">
      <stop offset="0" stop-color="#2c6cf9"/>
      <stop offset="1" stop-color="#04edfe"/>
    </linearGradient>
  </defs>
  <g id="工具icon" transform="translate(-103.236 -447.274) rotate(45)">
    <path id="联合_23" data-name="联合 23" class="cls-1" d="M-7948.894,35.664a8,8,0,0,1,4-6.925V23.755a11.483,11.483,0,0,1-3.632-2.457,11.424,11.424,0,0,1-3.369-8.132,11.4,11.4,0,0,1,2.261-6.847,11.442,11.442,0,0,1,5.74-4.111V13.666h7V2.207a11.441,11.441,0,0,1,5.742,4.111,11.4,11.4,0,0,1,2.261,6.847,11.426,11.426,0,0,1-3.371,8.132,11.476,11.476,0,0,1-3.63,2.456v5.671a7.989,7.989,0,0,1,3,6.24,8.01,8.01,0,0,1-8,8A8.012,8.012,0,0,1-7948.894,35.664Zm4.269,0a3.739,3.739,0,0,0,3.734,3.734,3.737,3.737,0,0,0,3.731-3.734,3.738,3.738,0,0,0-3.731-3.734A3.74,3.74,0,0,0-7944.625,35.664Z" transform="translate(8361.893 220.334)"/>
  </g>
</svg>
