<svg xmlns="http://www.w3.org/2000/svg" width="27.734" height="27.146" viewBox="0 0 27.734 27.146">
  <defs>
    <style>
      .cls-1 {
        isolation: isolate;
      }

      .cls-2 {
        fill: #f5f5f5;
      }
    </style>
  </defs>
  <g id="应急指挥icon" class="cls-1" transform="translate(-66.048 -94.208)">
    <path id="路径_600" data-name="路径 600" class="cls-2" d="M79.3,94.208,66.127,100.1l13.787,5.75,13.454-5.686Zm14.486,7.211-13.025,5.607v13.517l2.811-1.4c0-.016.016-.016.016-.032l4.082-7.052a.686.686,0,0,1,1.191,0l2,3.479,2.923-1.445V101.419ZM66.048,114.444l13.025,6.1V107.026l-13.025-5.337Zm4.1-8.244,5.194,2.43V110.5l-5.194-2.43V106.2Z" transform="translate(0 0)"/>
    <path id="路径_601" data-name="路径 601" class="cls-2" d="M637.894,704.87l-2.065-3.574-2-3.479a.686.686,0,0,0-1.191,0l-4.082,7.053c0,.016-.016.016-.016.032a.691.691,0,0,0,.62,1h8.148A.684.684,0,0,0,637.894,704.87Zm-4.67-.365a.586.586,0,0,1-.588-.588.588.588,0,1,1,.588.588Zm0-1.62a.6.6,0,0,1-.365-.127.61.61,0,0,1-.238-.476v-2.462a.6.6,0,0,1,1.207,0V702.3A.6.6,0,0,1,633.224,702.884Z" transform="translate(-544.97 -584.549)"/>
  </g>
</svg>
