<svg xmlns="http://www.w3.org/2000/svg" width="12.671" height="9.857" viewBox="0 0 12.671 9.857">
  <defs>
    <style>
      .cls-1 {
        fill: #12fd94;
      }
    </style>
  </defs>
  <path id="影像icon" class="cls-1" d="M79.53,166.916l-2.026.576v-1.325a.769.769,0,0,0-.766-.766H68.166a.769.769,0,0,0-.766.766v5.764a.769.769,0,0,0,.766.766H69.82l-.778,2.059a.344.344,0,0,0,.2.442l.094.036a.344.344,0,0,0,.442-.2l.883-2.338h3.576l.883,2.339a.345.345,0,0,0,.442.2l.094-.036a.345.345,0,0,0,.2-.442L75.08,172.7h1.659a.769.769,0,0,0,.766-.766v-1.325l2.025.574a.53.53,0,0,0,.54-.515v-3.236A.528.528,0,0,0,79.53,166.916Z" transform="translate(-67.4 -165.4)"/>
</svg>
