<svg xmlns="http://www.w3.org/2000/svg" width="36" height="35.999" viewBox="0 0 36 35.999">
  <defs>
    <style>
      .cls-1 {
        fill: #12fd94;
      }
    </style>
  </defs>
  <g id="影像icon-选中" transform="translate(-405 -156)">
    <path id="减去_9" data-name="减去 9" class="cls-1" d="M-7927,36h-24a3,3,0,0,1-3-3V29h2.144v2.855a2,2,0,0,0,2,2h21.717a2,2,0,0,0,2-2V10.142a2,2,0,0,0-2-2H-7931V6h4a3,3,0,0,1,3,3V33A3,3,0,0,1-7927,36Z" transform="translate(8365 156)"/>
    <path id="减去_7" data-name="减去 7" class="cls-1" d="M-7934,30h-22a4,4,0,0,1-4-4V4a4,4,0,0,1,4-4h22a4,4,0,0,1,4,4V26A4,4,0,0,1-7934,30Zm-19.07-9.661h0l-1.93,6.119h19.372l-1.93-6.119ZM-7945.277,3a6.592,6.592,0,0,0-2.621.527,6.807,6.807,0,0,0-2.124,1.428,6.889,6.889,0,0,0-1.45,2.136A6.494,6.494,0,0,0-7952,9.7a9.5,9.5,0,0,0,1.057,4.081,24.618,24.618,0,0,0,3.591,4.156l.005.005c.811.83,1.576,1.615,2.069,2.2.493-.583,1.259-1.368,2.07-2.2l.006-.006.007-.008a24.628,24.628,0,0,0,3.582-4.146,9.5,9.5,0,0,0,1.057-4.081,6.494,6.494,0,0,0-.527-2.607,6.957,6.957,0,0,0-1.45-2.136,6.81,6.81,0,0,0-2.126-1.428A6.585,6.585,0,0,0-7945.277,3Zm0,9.1a2.341,2.341,0,0,1-.935-.19,2.4,2.4,0,0,1-.751-.507,2.466,2.466,0,0,1-.529-.775,2.34,2.34,0,0,1-.19-.933,2.355,2.355,0,0,1,.19-.933,2.239,2.239,0,0,1,.529-.753,2.123,2.123,0,0,1,.751-.515,2.445,2.445,0,0,1,.935-.182,2.437,2.437,0,0,1,.933.182,2.123,2.123,0,0,1,.753.515,2.253,2.253,0,0,1,.529.753,2.355,2.355,0,0,1,.19.933,2.34,2.34,0,0,1-.19.933,2.49,2.49,0,0,1-.529.775,2.365,2.365,0,0,1-.753.507A2.307,2.307,0,0,1-7945.277,12.1Z" transform="translate(8365 156)"/>
  </g>
</svg>
