<svg xmlns="http://www.w3.org/2000/svg" width="28" height="28" viewBox="0 0 28 28">
  <defs>
    <style>
      .cls-1 {
        fill: #f5f5f5;
      }
    </style>
  </defs>
  <path id="扑火指挥icon" class="cls-1" d="M137.85,123.594H137.4c0,.007,0,.013,0,.02-1.149,1.036-2.135.949-5.822.979l-.456,0c0-.041,0-.082,0-.122.023-3.562-1.107-3.863-.53-4.353,0-.008.215-.186.215-.194h.566c.312,0,.776-.918.776-1.231a2.081,2.081,0,0,0-.287-.913,5.838,5.838,0,0,1,5.465,4.914h.521a.449.449,0,0,1,0,.9Zm-7.626-4.263h-.557c0,.008,0,.016,0,.024-1.426,1.306-2.651,1.2-7.225,1.233s-6.021-.211-7.255-1.233c0-.008,0-.016,0-.024h-.557a.566.566,0,1,1,0-1.132h.646a7.224,7.224,0,0,1,14.3,0h.647a.566.566,0,1,1,0,1.132Zm-7.54-3.342a1.96,1.96,0,1,0,1.96,1.96,1.96,1.96,0,0,0-1.96-1.96Zm-4.618,14.356a7.444,7.444,0,0,1-2.266-8.839c1.157.665,2.791.835,6.642.8,3.935-.032,5.392.045,6.629-.764a7.443,7.443,0,0,1-2.266,8.785,10.635,10.635,0,0,1,6.1,9.235.414.414,0,0,1-.461.432c-2.689,0-16.016,0-19.6,0-.643-.031-.813-.37-.832-.646A10.632,10.632,0,0,1,118.067,130.346Zm11.093-.006a5.511,5.511,0,0,0,1.924-4.377l.5,0c3.171-.025,4.344.036,5.341-.607a5.847,5.847,0,0,1-1.825,6.973,8.438,8.438,0,0,1,4.913,7.33c.014.309-.268.338-.371.343h-5.389a.616.616,0,0,0,.161-.434C134.247,135.459,132.695,131.962,129.16,130.34Z" transform="translate(-112.01 -112)"/>
</svg>
