<svg xmlns="http://www.w3.org/2000/svg" xmlns:xlink="http://www.w3.org/1999/xlink" width="24" height="22" viewBox="0 0 24 22">
  <defs>
    <style>
      .cls-1 {
        fill: url(#linear-gradient);
      }

      .cls-2 {
        fill: #101518;
      }
    </style>
    <linearGradient id="linear-gradient" x1="0.5" x2="0.5" y2="1" gradientUnits="objectBoundingBox">
      <stop offset="0" stop-color="#fad145"/>
      <stop offset="0.556" stop-color="#22e8d4"/>
      <stop offset="1" stop-color="#059ff7"/>
    </linearGradient>
  </defs>
  <g id="搜索icon" transform="translate(-346 127)">
    <path id="减去_6" data-name="减去 6" class="cls-1" d="M-3294,474h-13V452h13a10.928,10.928,0,0,1,7.778,3.222A10.927,10.927,0,0,1-3283,463a10.929,10.929,0,0,1-3.222,7.779A10.928,10.928,0,0,1-3294,474Z" transform="translate(3653 -579)"/>
    <path id="路径_120" data-name="路径 120" class="cls-2" d="M57.643,57.213l-2.979-2.981a.806.806,0,0,0-1.141,0l-.094.094a.809.809,0,0,0,0,1.143L56.5,58.543a.806.806,0,0,0,1.141,0A.941.941,0,0,0,57.643,57.213Zm-2.719-5.1a6.8,6.8,0,1,0-1.453,2.155A6.747,6.747,0,0,0,54.925,52.117Zm-6.246,3.353a5.991,5.991,0,1,1,5.991-5.991,6,6,0,0,1-5.991,5.991Zm-3.863-9.014-.063-.048a.354.354,0,0,0-.509.084.18.18,0,0,0-.012.019.352.352,0,0,0,.12.5l.07.039a.354.354,0,0,0,.471-.111l0-.005A.353.353,0,0,0,44.816,46.455Zm-.728,1.179a.393.393,0,0,0-.526.233,5.916,5.916,0,0,0-.319,1.929v.01a.394.394,0,1,0,.788-.005V49.8a5.17,5.17,0,0,1,.274-1.669A.394.394,0,0,0,44.088,47.634Z" transform="translate(306.536 -167.546)"/>
  </g>
</svg>
