<svg xmlns="http://www.w3.org/2000/svg" width="22.485" height="16.996" viewBox="0 0 22.485 16.996">
  <defs>
    <style>
      .cls-1 {
        fill: #f5f5f5;
      }
    </style>
  </defs>
  <path id="救援icon" class="cls-1" d="M64,173.816h9.887v.956H64Zm12.6,0h9.885v.956H76.6Zm-1.357.479-.919,0a.919.919,0,1,0,.919-.919.919.919,0,0,0-.919.919Zm-.437,5.836H73v1.336h-1.38v.914H73v1.365h.887v-1.365h1.356v-.914H73.887Zm4.2-1.8h-1.5v-1.8h-4.5l-1.537,1.914a2.706,2.706,0,0,0-1.725.9l-2.343-.055-.768-2.663L64,176.53l.826,4.275s2.944,1.087,3.262,1.238.488.225.469.617-.638,4.145,2.155,6.171,7.258,1.5,8.382,1.426a15.758,15.758,0,0,0,5.942-1.913c1.818-1.161,1.593-4.254-.506-7.107S78.082,178.331,78.082,178.331Zm-4.6,6.3a2.841,2.841,0,1,1,2.84-2.843A2.841,2.841,0,0,1,73.477,184.633Zm4.908-.014v-5.191s5.791.591,6.257,5.191Z" transform="translate(-64 -173.376)"/>
</svg>
