<svg xmlns="http://www.w3.org/2000/svg" width="24.673" height="26.511" viewBox="0 0 24.673 26.511">
  <defs>
    <style>
      .cls-1 {
        fill: #f5f5f5;
      }
    </style>
  </defs>
  <g id="日常办事icon" transform="translate(-85.333 -51.2)">
    <path id="路径_598" data-name="路径 598" class="cls-1" d="M257.575,56.975A1.58,1.58,0,0,1,256,55.4V52.775a1.575,1.575,0,1,1,3.15,0V55.4a1.58,1.58,0,0,1-1.575,1.575Zm11.037,0a1.58,1.58,0,0,1-1.575-1.575V52.775a1.575,1.575,0,0,1,3.15,0V55.4a1.58,1.58,0,0,1-1.575,1.575Z" transform="translate(-165.417 0)"/>
    <path id="路径_599" data-name="路径 599" class="cls-1" d="M108.379,110.933H86.961a1.636,1.636,0,0,0-1.627,1.627v21.405a1.641,1.641,0,0,0,1.641,1.641h21.392a1.641,1.641,0,0,0,1.641-1.641V112.56a1.644,1.644,0,0,0-1.627-1.627Zm-3.858,12.547-7.048,7.048a1.054,1.054,0,0,1-1.483,0l-4.449-4.449a1.049,1.049,0,0,1,1.483-1.483l3.714,3.714L103.051,122a1.054,1.054,0,0,1,1.483,0,1.066,1.066,0,0,1-.013,1.483Zm3.36-9.738c-.013.3-.013.722-.026,1.234-.013.433-.013.866-.013,1.207H87.446V113.2a.177.177,0,0,1,.184-.171h20.08a.177.177,0,0,1,.184.171c-.013.157-.013.354-.013.538Z" transform="translate(0 -57.896)"/>
  </g>
</svg>
