<svg xmlns="http://www.w3.org/2000/svg" width="21.07" height="19.689" viewBox="0 0 21.07 19.689">
  <defs>
    <style>
      .cls-1 {
        fill: #f5f5f5;
      }
    </style>
  </defs>
  <path id="救援icon" class="cls-1" d="M77.109,61.975a7.306,7.306,0,0,0-6.822-4.745h-3.3a7.31,7.31,0,0,0-6.822,4.745A.645.645,0,0,0,60.1,62l-.079-3.285a.853.853,0,0,0,.533-.789V56.252a.851.851,0,1,0-1.7,0v1.669a.853.853,0,0,0,.533.789L59.3,62.448a3.078,3.078,0,0,0-1.2,2.433v2.557a3.093,3.093,0,0,0,2.063,2.906,7.31,7.31,0,0,0,6.822,4.745h3.3a7.31,7.31,0,0,0,6.822-4.745,3.094,3.094,0,0,0,2.061-2.906V64.881A3.089,3.089,0,0,0,77.109,61.975Zm-.768,5.237a3.14,3.14,0,0,1-3.132,3.132H64.063a3.14,3.14,0,0,1-3.132-3.132v-2.1a3.14,3.14,0,0,1,3.132-3.132h9.146a3.14,3.14,0,0,1,3.132,3.132Zm-5.488-2.973-1.886,3.1-2.333-4.568-1.825,3.607-2.8.431,3.311.121,1.292-2.182,2.375,4.45L70.9,65.8l.938,1.148,2.829-.137-2.477-.4Z" transform="translate(-58.1 -55.4)"/>
</svg>
