<svg xmlns="http://www.w3.org/2000/svg" width="14.443" height="16.985" viewBox="0 0 14.443 16.985">
  <defs>
  </defs>
  <g id="标题一icon" transform="translate(-178.887 -8.965)">
    <path id="路径_104" data-name="路径 104" class="cls-1" d="M181.243,639.33a1.505,1.505,0,0,0,.63-.141v1.1h.421v-1.172a1.468,1.468,0,0,0,.774.217,1.278,1.278,0,0,0,1.278-.865,1.451,1.451,0,0,0,.631-.239v-.476a3.73,3.73,0,0,1-.912.11h0a3.647,3.647,0,0,1-2.395-.855,2.9,2.9,0,0,1-2.1-2.6,1.035,1.035,0,0,0-.424.808.954.954,0,0,0,.209.589,1.01,1.01,0,0,0-.446.818,1.066,1.066,0,0,0,.6.921,1.046,1.046,0,0,0-.083.4,1.125,1.125,0,0,0,.862,1.023,1.424,1.424,0,0,0,.965.361Zm11.994-3.01a1.084,1.084,0,0,0-.672-.957,3.69,3.69,0,0,1-1.721.6c0,1.079-1.266,1.893-2.756,1.9a3.811,3.811,0,0,1-.76-.079.8.8,0,0,0-.016.162,1.126,1.126,0,0,0,.862,1.026,1.425,1.425,0,0,0,.965.361,1.506,1.506,0,0,0,.63-.141v1.1h.422v-1.172a1.46,1.46,0,0,0,.772.217,1.281,1.281,0,0,0,1.277-.858,1.192,1.192,0,0,0,1.1-1.093.976.976,0,0,0-.224-.615.9.9,0,0,0,.118-.444Z" transform="translate(-0.014 -614.955)"/>
    <path id="路径_105" data-name="路径 105" class="cls-1" d="M186.37,21.809a3.213,3.213,0,0,0,1.711.478,2.821,2.821,0,0,0,2.812-1.891,2.627,2.627,0,0,0,2.437-2.408,2.151,2.151,0,0,0-.5-1.359,1.94,1.94,0,0,0,.261-.983,2.481,2.481,0,0,0-1.865-2.258,2.269,2.269,0,0,0,.353-1.186,2.688,2.688,0,0,0-2.889-2.415,3.283,3.283,0,0,0-1.548.383,3.016,3.016,0,0,0-2.485-1.205,2.831,2.831,0,0,0-2.8,1.853,2.709,2.709,0,0,0-2.43,2.106,1.965,1.965,0,0,0-.02.286,2.131,2.131,0,0,0,.459,1.308,2.225,2.225,0,0,0-.984,1.8,2.36,2.36,0,0,0,1.336,2.04,2.085,2.085,0,0,0-.2.862,2.483,2.483,0,0,0,1.879,2.267,3.2,3.2,0,0,0,2.149.8,3.273,3.273,0,0,0,1.387-.312V25.52h-5.531v.43H191.9v-.43h-5.534V21.809Z" transform="translate(0)"/>
  </g>
</svg>
