<svg xmlns="http://www.w3.org/2000/svg" width="13.536" height="14.93" viewBox="0 0 13.536 14.93">
  <defs>
    <style>
      .cls-1 {
        fill: #fafafa;
      }
    </style>
  </defs>
  <path id="模拟火灾icon" class="cls-1" d="M57.437,1.616A3.375,3.375,0,0,0,55.621,4.8S53.8,4.528,53.8,0c0,0-7.117,3.061-3.882,9.356-1.219-.174-2.314-1.667-2.911-2.414,0,6.121,3.334,7.988,6.768,7.988,4.827,0,6.768-3.185,6.768-5.549,0-3.484-3.11-3.932-3.11-7.764ZM53.58,11.072a1.315,1.315,0,0,1-.323-.025l-.174-.523c.124,0,.249.025.4.025a.741.741,0,0,0,.348-.05c.05-.05.05-.124.05-.249a1.663,1.663,0,0,0-.7-1.269c.174-.4.348-.871.523-1.393h-.722v4.8h-.547V7.016h1.891v.547a8.96,8.96,0,0,1-.448,1.294,2.093,2.093,0,0,1,.6,1.369c0,.572-.3.846-.9.846Zm4.131-2.787H55.795l-.025.821h1.692c0,.523,0,1.095-.05,1.767a3.937,3.937,0,0,1-.174,1.17.791.791,0,0,1-.249.249,1.434,1.434,0,0,1-.722.1h-.373l-.224-.572h.572a1.556,1.556,0,0,0,.423-.025.194.194,0,0,0,.1-.1,3.477,3.477,0,0,0,.075-.7c.025-.423.05-.871.05-1.344H55.745a3.869,3.869,0,0,1-1.418,2.787l-.4-.373a3.855,3.855,0,0,0,.771-.9,3.115,3.115,0,0,0,.448-1.12,8.688,8.688,0,0,0,.075-1.742h-.8V7.738H55.77a3.121,3.121,0,0,0-.373-.672l.547-.2a5.847,5.847,0,0,1,.448.871h1.319v.547Z" transform="translate(-47.011 0.001)"/>
</svg>
