<svg xmlns="http://www.w3.org/2000/svg" width="22" height="22" viewBox="0 0 22 22">
  <defs>
    <style>
      .cls-1 {
        fill: #07e7f7;
      }
    </style>
  </defs>
  <path id="河流icon" class="cls-1" d="M55.6,18.2a2.657,2.657,0,0,1-.878-2.056,2.688,2.688,0,0,1,1.032-1.994,4.416,4.416,0,0,0,1.7-3.29,4.368,4.368,0,0,0-1.463-3.386l-.381-.347a2.627,2.627,0,0,1,.131-4.05L59.554,0H56.632L54.483,1.736A4.415,4.415,0,0,0,52.8,5.023,4.372,4.372,0,0,0,54.269,8.4l.38.347a2.656,2.656,0,0,1,.89,2.059,2.685,2.685,0,0,1-1.034,2,4.417,4.417,0,0,0-1.7,3.279,4.366,4.366,0,0,0,1.447,3.382L57.012,22h2.715ZM39.647,16.142a2.66,2.66,0,0,1,1.033-1.994,4.416,4.416,0,0,0,1.7-3.29,4.368,4.368,0,0,0-1.463-3.386l-.38-.347a2.627,2.627,0,0,1,.131-4.05L44.478,0H41.556L39.407,1.736a4.415,4.415,0,0,0-1.678,3.287A4.372,4.372,0,0,0,39.193,8.4l.38.347a2.656,2.656,0,0,1,.89,2.059,2.685,2.685,0,0,1-1.034,2,4.417,4.417,0,0,0-1.7,3.279,4.366,4.366,0,0,0,1.447,3.382L41.936,22h2.715l-4.128-3.793a2.628,2.628,0,0,1-.876-2.065Zm3.99-5.286a4.18,4.18,0,0,1-.083.67l8.131-7.535A4.514,4.514,0,0,1,53.2,1.736L55.346,0H53.716L43.465,9.514a4.211,4.211,0,0,1,.173,1.342ZM47.874,0H45.722l-.959.761-3.7,3.428a2.577,2.577,0,0,0,.051,2.047Zm-5.7,7.473a4.579,4.579,0,0,1,.745.889L51.931.012H49.671L41.885,7.2Zm9.391-1.707-10.574,9.8a2.613,2.613,0,0,0-.086.578,2.573,2.573,0,0,0,.32,1.316L52.117,7.342a4.324,4.324,0,0,1-.55-1.576Zm.026,11.259L46.224,22h2.261l3.722-3.449a4.355,4.355,0,0,1-.614-1.523Zm3.44,4.335L54.355,22h1.381ZM53.361,8.741l-.38-.353c-.032-.03-.061-.062-.093-.092L42,18.388l1.135,1.043,10.788-10a2.8,2.8,0,0,0-.56-.693ZM50.285,22h2.261l1.6-1.481-1.135-1.043Zm-5.116-.687,6.452-5.979a4.491,4.491,0,0,1,1.6-2.53,2.657,2.657,0,0,0,1.033-2L44.037,20.267Z" transform="translate(-37.727)"/>
</svg>
