<svg xmlns="http://www.w3.org/2000/svg" width="40" height="40" viewBox="0 0 40 40">
  <defs>
    <style>
      .cls-1 {
        fill: #12fd94;
      }
    </style>
  </defs>
  <path id="矢量icon-选中" class="cls-1" d="M-7940,40a19.871,19.871,0,0,1-14.143-5.857A19.865,19.865,0,0,1-7960,20a19.868,19.868,0,0,1,5.858-14.143A19.87,19.87,0,0,1-7940,0a19.866,19.866,0,0,1,14.141,5.858A19.869,19.869,0,0,1-7920,20a19.866,19.866,0,0,1-5.858,14.141A19.866,19.866,0,0,1-7940,40Zm-12.44-24.317h0a.885.885,0,0,0-.1.006c-2.239.264-3.643,2.093-3.852,5.018-.213,2.977,1.083,6.158,3.852,9.453,2.083,2.485,6.134,4.585,8.846,4.585a3.81,3.81,0,0,0,1.774-.384,1.068,1.068,0,0,0,.675-.907c.052-1.667-4.133-4.2-4.175-4.228l.7-3.5h-2.685l-3.852-3.852c.005-.047.5-4.707-.579-5.906a.784.784,0,0,0-.6-.285Zm9.468,2.1c-.039,0-.079,0-.118,0a4.2,4.2,0,0,0-3.17,2.5,2.007,2.007,0,0,0,.135,2.167,3.191,3.191,0,0,0,2.509.723c1.158.023,2.252.044,2.509,1.261.5,2.356,3.076,3.673,5.136,4.085.456.091.707.238.768.45.117.4-.489.982-1.076,1.542-.516.493-1.049,1-1.092,1.392-.016.148-.049.322-.084.506l0,.025c-.12.629-.27,1.411.078,1.832a1,1,0,0,0,.816.306,4.114,4.114,0,0,0,1.177-.218c2.946-.905,8.52-5.562,8.52-7.118,0-.751-.492-.788-1.062-.831a1.6,1.6,0,0,1-1.622-.921,6.7,6.7,0,0,0-1.708-2.074,4.164,4.164,0,0,1-1.444-1.893c-.225-1.237-.257-2.092,1.285-2.685a5.087,5.087,0,0,0,2.53-2.882,2.217,2.217,0,0,0-.079-1.9c-.133-.217-.179-.355-.141-.424a.13.13,0,0,1,.124-.052,2.959,2.959,0,0,1,.778.238l.09.035a3.27,3.27,0,0,0,.988.274.317.317,0,0,0,.277-.109c.075-.1.069-.288-.017-.546A11.638,11.638,0,0,0-7932,7.17l-.35-.2-.122-.071c-1.691-.982-3.439-2-4.744-2-1.106,0-1.729.742-1.9,2.27-.472,4.124-.586,4.669-1.984,5.136-.678.225-1.08.61-1.049,1,.028.363.42.642,1.049.747a.914.914,0,0,0,.15.012,2.973,2.973,0,0,0,1.694-1.013l.13-.122c.489-.458.949-.888,1.326-.888a.522.522,0,0,1,.436.261,2.879,2.879,0,0,1,.3,2.435,1.918,1.918,0,0,1-1.118,1.3c-.674.246-.608,1.373-.544,2.462.056.959.109,1.862-.389,1.973a.536.536,0,0,1-.115.013c-.406,0-.786-.467-1.227-1.008-.089-.11-.184-.226-.282-.343A3.013,3.013,0,0,0-7942.972,17.786Z" transform="translate(7960)"/>
</svg>
