<svg xmlns="http://www.w3.org/2000/svg" width="18" height="19" viewBox="0 0 18 19">
  <defs>
    <style>
      .cls-1 {
        fill: #fafafa;
      }
    </style>
  </defs>
  <path id="组织icon" class="cls-1" d="M148.071,117.2h-7.744a.69.69,0,0,1-.67-.986l4.541-8.621,4.543,8.621A.692.692,0,0,1,148.071,117.2ZM144.2,106.5m-1.758,0a1.764,1.764,0,1,0,1.758-1.621A1.694,1.694,0,0,0,142.439,106.5Zm-1.213,4.576.567-1.076a4.076,4.076,0,0,1-2.093-3.5,4.515,4.515,0,0,1,9,0,4.082,4.082,0,0,1-2.093,3.5l.567,1.076a5.266,5.266,0,0,0,2.821-4.576,5.814,5.814,0,0,0-11.589,0A5.266,5.266,0,0,0,141.226,111.073Zm-1.407,2.671.6-1.142a6.952,6.952,0,0,1-3.852-6.1c0-3.884,3.416-7.033,7.629-7.033s7.629,3.149,7.629,7.033a6.952,6.952,0,0,1-3.852,6.1l.6,1.142a8.213,8.213,0,0,0,4.62-7.247c0-4.581-4.029-8.3-9-8.3s-9,3.714-9,8.3A8.213,8.213,0,0,0,139.82,113.744Z" transform="translate(-135.2 -98.2)"/>
</svg>
