<svg xmlns="http://www.w3.org/2000/svg" width="21.253" height="20" viewBox="0 0 21.253 20">
  <defs>
    <style>
      .cls-1 {
        fill: #f5f5f5;
      }
    </style>
  </defs>
  <g id="绘制icon" transform="translate(-80.61 -95.944)">
    <path id="路径_622" data-name="路径 622" class="cls-1" d="M82.563,97.9H80.61a1.953,1.953,0,1,0,1.953-1.953A1.953,1.953,0,0,0,80.61,97.9ZM80.61,113.99a1.953,1.953,0,1,0,1.953-1.953A1.953,1.953,0,0,0,80.61,113.99ZM96.7,97.9a1.953,1.953,0,1,0,1.953-1.953A1.953,1.953,0,0,0,96.7,97.9Z"/>
    <path id="路径_623" data-name="路径 623" class="cls-1" d="M162.105,136.689H178.2v1.953H162.105Zm0,16.093h6.648v1.953h-6.648Z" transform="translate(-79.542 -39.768)"/>
    <path id="路径_624" data-name="路径 624" class="cls-1" d="M123.312,177.416V193.51h-1.953V177.416Zm16.093,0v6.754h-1.953v-6.754Zm-1.777,8.389,2.752,2.752-5.65,5.652-2.753-2.753Zm3.013,2.491-2.753-2.751.75-.75a.83.83,0,0,1,1.174,0h0l1.58,1.58a.831.831,0,0,1,0,1.174l-.75.75Zm-9.884,7.166,3.712-1-2.718-2.719Z" transform="translate(-39.772 -79.519)"/>
  </g>
</svg>
